<?xml version="1.0" encoding="UTF-8"?>
<svg id="Capa_2" data-name="Capa 2" xmlns="http://www.w3.org/2000/svg" viewBox="0 0 525.94 692.5">
  <defs>
    <style>
      .cls-1 {
        fill: #eee;
        stroke: #eee;
        stroke-miterlimit: 10;
        stroke-width: 20px;
      }
    </style>
  </defs>
  <g id="Logo">
    <rect class="cls-1" x="10" y="293.5" width="20" height="269" rx="10" ry="10"/>
    <rect class="cls-1" x="495.94" y="293.5" width="20" height="269" rx="10" ry="10" transform="translate(1011.89 856) rotate(-180)"/>
    <path class="cls-1" d="M459.97,301.09h0c-2.76-4.78-8.88-6.42-13.66-3.66l-183.34,105.85-183.34-105.85c-4.78-2.76-10.9-1.12-13.66,3.66h0c-2.76,4.78-1.12,10.9,3.66,13.66l184.31,106.41c2.87,1.66,6.21,1.72,9.03,.48,2.82,1.24,6.16,1.18,9.03-.48l184.31-106.41c4.78-2.76,6.42-8.88,3.66-13.66Z"/>
    <path class="cls-1" d="M264.5,35c64.65,0,117.83,49.07,124.33,112,.43,4.11,.65,8.28,.67,12.5,0,6.9,5.6,12.5,12.5,12.5s12.46-5.56,12.5-12.43v-.17c-.02-4.18-.2-8.31-.56-12.4-6.59-76.75-70.98-137-149.44-137-82.84,0-150,67.16-150,150,0,52.18,26.64,98.13,67.07,125,23.5,15.63,51.68,24.79,81.97,24.98v.02c69.04,0,125,55.96,125,125s-55.96,125-125,125c-64.65,0-117.83-49.07-124.33-112h-.04c-.4-3.98-.61-8.02-.63-12.11,0-6.9-5.6-12.5-12.5-12.5s-12.46,5.56-12.5,12.43v.17c.02,4.18,.2,8.31,.56,12.4h.04c6.47,73.1,65.38,131.14,138.86,136.24v87.87c0,5.52,4.48,10,10,10s10-4.48,10-10v-87.81c78.43-4.88,140.54-70.03,140.54-149.69s-67.16-150-150-150h.96c-69.04,0-125-55.96-125-125s55.96-125,125-125Z"/>
  </g>
</svg>