<?xml version="1.0" standalone="no"?>
<!DOCTYPE svg PUBLIC "-//W3C//DTD SVG 20010904//EN"
 "http://www.w3.org/TR/2001/REC-SVG-20010904/DTD/svg10.dtd">
<svg version="1.0" xmlns="http://www.w3.org/2000/svg"
 width="260.000000pt" height="260.000000pt" viewBox="0 0 260.000000 260.000000"
 preserveAspectRatio="xMidYMid meet">
<metadata>
Created by potrace 1.14, written by Peter Selinger 2001-2017
</metadata>
<g transform="translate(0.000000,260.000000) scale(0.100000,-0.100000)"
fill="#000000" stroke="none">
<path d="M1183 2445 c-191 -42 -362 -213 -402 -403 -36 -173 11 -354 126 -482
98 -109 216 -163 393 -178 93 -9 204 -45 230 -77 7 -8 -22 -29 -106 -78 -63
-37 -119 -67 -124 -67 -5 0 -141 77 -303 170 -231 134 -302 170 -330 170 -59
0 -88 -63 -49 -109 9 -11 158 -102 330 -201 258 -148 320 -180 352 -180 30 0
70 18 186 85 109 63 150 82 156 73 4 -7 15 -37 24 -67 49 -164 -42 -358 -204
-438 -51 -25 -67 -28 -162 -28 -96 0 -110 2 -159 28 -121 64 -194 166 -213
299 -13 83 -36 118 -79 118 -72 0 -94 -40 -80 -143 18 -128 58 -214 145 -305
64 -68 142 -115 239 -143 l77 -23 0 -143 c0 -133 1 -143 22 -163 28 -26 68
-26 96 0 21 20 22 30 22 164 l0 143 66 17 c172 42 314 174 376 347 18 52 22
85 22 174 0 96 -4 119 -28 185 -16 41 -25 76 -20 77 5 2 52 29 104 61 106 64
126 92 99 140 -11 21 -24 28 -53 30 -31 3 -56 -7 -142 -58 l-105 -61 -40 34
c-86 75 -221 127 -324 127 -158 0 -298 88 -363 228 -24 50 -27 69 -27 157 0
92 3 105 32 160 38 74 115 148 191 183 48 23 70 27 147 27 77 0 99 -4 148 -27
74 -35 157 -114 191 -183 15 -32 30 -85 36 -127 7 -61 13 -77 36 -96 21 -18
34 -22 57 -18 53 11 67 32 67 100 0 126 -50 244 -146 346 -132 140 -319 197
-511 155z"/>
<path d="M436 1488 c-14 -20 -16 -81 -16 -465 0 -442 0 -442 22 -463 28 -26
68 -26 96 0 22 21 22 21 22 463 0 500 2 487 -70 487 -29 0 -43 -6 -54 -22z"/>
<path d="M2056 1488 c-14 -20 -16 -81 -16 -465 0 -442 0 -442 22 -463 28 -26
68 -26 96 0 22 21 22 21 22 463 0 500 2 487 -70 487 -29 0 -43 -6 -54 -22z"/>
</g>
</svg>
