<svg id="eySqQ8FWRc31" xmlns="http://www.w3.org/2000/svg" xmlns:xlink="http://www.w3.org/1999/xlink" viewBox="0 0 439.15 467.41" shape-rendering="geometricPrecision" text-rendering="geometricPrecision">
<style><![CDATA[
#eySqQ8FWRc3161_to {animation: eySqQ8FWRc3161_to__to 4000ms linear infinite normal forwards}@keyframes eySqQ8FWRc3161_to__to { 0% {offset-distance: 0%} 50% {offset-distance: 38.508602%} 100% {offset-distance: 100%}} #eySqQ8FWRc3171_to {animation: eySqQ8FWRc3171_to__to 4000ms linear infinite normal forwards}@keyframes eySqQ8FWRc3171_to__to { 0% {offset-distance: 0%} 50% {offset-distance: 50%} 100% {offset-distance: 100%}} #eySqQ8FWRc3181_to {animation: eySqQ8FWRc3181_to__to 4000ms linear infinite normal forwards}@keyframes eySqQ8FWRc3181_to__to { 0% {offset-distance: 0%} 50% {offset-distance: 50%} 100% {offset-distance: 100%}} #eySqQ8FWRc3214_to {animation: eySqQ8FWRc3214_to__to 4000ms linear infinite normal forwards}@keyframes eySqQ8FWRc3214_to__to { 0% {offset-distance: 0%} 50% {offset-distance: 50%} 100% {offset-distance: 100%}} #eySqQ8FWRc3225_to {animation: eySqQ8FWRc3225_to__to 4000ms linear infinite normal forwards}@keyframes eySqQ8FWRc3225_to__to { 0% {offset-distance: 0%} 50% {offset-distance: 50%} 100% {offset-distance: 100%}}
]]></style>
<g style="isolation:isolate"><g><g><g><path d="M257.08,205.42l-10.53,39.69c-1.68,6.33-8.28,10-14.54,8.09l-7.11-2.16l21.45-50.47l10.73,4.86Z" fill="#fecad0"/><path d="M250.64,194.41c-.85-1.06-7.55,2.5-9.16,2.88s-.17,4.4,2.8,4s3.9-3.53,3.9-3.53l2.46-3.36Z" fill="#ee84aa"/><path d="M245.71,185.88l-.2,25.96l2.8-.59v-25.35c0-.56-.36-1.06-.9-1.23v0c-.83-.27-1.69.35-1.7,1.22Z" fill="#1f3251"/><path d="M249.71,194.86c0,0-8.57,8.58-6.91,11.06c1.65,2.48,6.93-2.03,7.95-3.43-.13,2.86,3.53,5.55,5.72,5.21c3.31-.51,4.64-3.88,3.62-5.41s-7.19-5.09-7.19-5.09-1.56-4.64-3.2-2.35Z" fill="#fecad0"/><g><polyline points="166.11,433.89 163.06,449.66 167.63,457.55 178.7,453.22 183.15,437.83" fill="#fecad0"/><path d="M139.43,460.71l24.14-13.98l4.58,6.49h10.56l1.14,9.79h-39.8c-1.26,0-1.71-1.67-.62-2.3Z" fill="#171c51"/></g><g><polyline points="269.97,433.89 273.03,449.66 268.45,457.55 257.38,453.22 252.93,437.83" fill="#fecad0"/><path d="M296.65,460.71l-24.14-13.98-4.58,6.49h-10.56l-1.14,9.79h39.8c1.26,0,1.71-1.67.62-2.3Z" fill="#171c51"/></g><polygon points="271.96,428.3 249.16,433.29 214.34,316.72 186.55,431.29 163.95,427.96 178.47,306.16 180.7,287.4 214.5,284.82 237.2,283.09 237.62,284.82 237.86,285.83 271.96,428.3" fill="#587cf8"/><polygon points="237.86,285.83 178.47,306.16 180.7,287.4 214.5,284.82 237.62,284.82 237.86,285.83" fill="#3456b6"/><path d="M239.39,282.17c.2,1.46-.82,2.82-2.29,3.04l-54.45,8.01c-1.85.27-3.5-1.21-3.43-3.08l1.56-42.71l1.15-31.1l8.32-18.16l1.72-3.76h19.1l2.08.28c.52.07,1.04.15,1.54.25c8.24,1.58,15.29,6.92,19.06,14.49l11.77,23.69-11.2,11.33l5.07,37.73Z" fill="#feb160"/><path d="M188.9,211.56c-.35.86-.5,1.77-.43,2.69l2.09,27.45-1.75,1.03-8.03,4.71-10.06,5.9-1.68.99-3.19-27.34c-1.39-11.99,5.08-23.52,16.05-28.56l6.79-3.13l3.3-1.51l2.36.64l1.39.38-2.7,6.61-4.14,10.16Z" fill="#feb160"/><g clip-path="url(#eySqQ8FWRc3104)"><g><g><g><path style="mix-blend-mode:overlay" d="M170.47,281.53c0,1.09-.88,1.97-1.97,1.97s-1.97-.88-1.97-1.97.88-1.97,1.97-1.97s1.97.88,1.97,1.97Z" opacity="0.25" fill="#fff"/><path style="mix-blend-mode:overlay" d="M182.14,281.53c0,1.09-.88,1.97-1.97,1.97s-1.97-.88-1.97-1.97.88-1.97,1.97-1.97s1.97.88,1.97,1.97Z" opacity="0.25" fill="#fff"/><path style="mix-blend-mode:overlay" d="M193.81,281.53c0,1.09-.88,1.97-1.97,1.97s-1.97-.88-1.97-1.97.88-1.97,1.97-1.97s1.97.88,1.97,1.97Z" opacity="0.25" fill="#fff"/><path style="mix-blend-mode:overlay" d="M205.48,281.53c0,1.09-.88,1.97-1.97,1.97s-1.97-.88-1.97-1.97.88-1.97,1.97-1.97s1.97.88,1.97,1.97Z" opacity="0.25" fill="#fff"/><path style="mix-blend-mode:overlay" d="M217.16,281.53c0,1.09-.88,1.97-1.97,1.97s-1.97-.88-1.97-1.97.88-1.97,1.97-1.97s1.97.88,1.97,1.97Z" opacity="0.25" fill="#fff"/><path style="mix-blend-mode:overlay" d="M228.83,281.53c0,1.09-.88,1.97-1.97,1.97s-1.97-.88-1.97-1.97.88-1.97,1.97-1.97s1.97.88,1.97,1.97Z" opacity="0.25" fill="#fff"/><path style="mix-blend-mode:overlay" d="M240.5,281.53c0,1.09-.88,1.97-1.97,1.97s-1.97-.88-1.97-1.97.88-1.97,1.97-1.97s1.97.88,1.97,1.97Z" opacity="0.25" fill="#fff"/><path style="mix-blend-mode:overlay" d="M252.17,281.53c0,1.09-.88,1.97-1.97,1.97s-1.97-.88-1.97-1.97.88-1.97,1.97-1.97s1.97.88,1.97,1.97Z" opacity="0.25" fill="#fff"/></g><g><path style="mix-blend-mode:overlay" d="M170.47,270.64c0,1.09-.88,1.97-1.97,1.97s-1.97-.88-1.97-1.97.88-1.97,1.97-1.97s1.97.88,1.97,1.97Z" opacity="0.25" fill="#fff"/><path style="mix-blend-mode:overlay" d="M182.14,270.64c0,1.09-.88,1.97-1.97,1.97s-1.97-.88-1.97-1.97.88-1.97,1.97-1.97s1.97.88,1.97,1.97Z" opacity="0.25" fill="#fff"/><path style="mix-blend-mode:overlay" d="M193.81,270.64c0,1.09-.88,1.97-1.97,1.97s-1.97-.88-1.97-1.97.88-1.97,1.97-1.97s1.97.88,1.97,1.97Z" opacity="0.25" fill="#fff"/><path style="mix-blend-mode:overlay" d="M205.48,270.64c0,1.09-.88,1.97-1.97,1.97s-1.97-.88-1.97-1.97.88-1.97,1.97-1.97s1.97.88,1.97,1.97Z" opacity="0.25" fill="#fff"/><path style="mix-blend-mode:overlay" d="M217.16,270.64c0,1.09-.88,1.97-1.97,1.97s-1.97-.88-1.97-1.97.88-1.97,1.97-1.97s1.97.88,1.97,1.97Z" opacity="0.25" fill="#fff"/><path style="mix-blend-mode:overlay" d="M228.83,270.64c0,1.09-.88,1.97-1.97,1.97s-1.97-.88-1.97-1.97.88-1.97,1.97-1.97s1.97.88,1.97,1.97Z" opacity="0.25" fill="#fff"/><path style="mix-blend-mode:overlay" d="M240.5,270.64c0,1.09-.88,1.97-1.97,1.97s-1.97-.88-1.97-1.97.88-1.97,1.97-1.97s1.97.88,1.97,1.97Z" opacity="0.25" fill="#fff"/><path style="mix-blend-mode:overlay" d="M252.17,270.64c0,1.09-.88,1.97-1.97,1.97s-1.97-.88-1.97-1.97.88-1.97,1.97-1.97s1.97.88,1.97,1.97Z" opacity="0.25" fill="#fff"/></g><g><circle style="mix-blend-mode:overlay" r="1.97" transform="translate(168.5 259.75)" opacity="0.25" fill="#fff"/><path style="mix-blend-mode:overlay" d="M182.14,259.75c0,1.09-.88,1.97-1.97,1.97s-1.97-.88-1.97-1.97.88-1.97,1.97-1.97s1.97.88,1.97,1.97Z" opacity="0.25" fill="#fff"/><path style="mix-blend-mode:overlay" d="M193.81,259.75c0,1.09-.88,1.97-1.97,1.97s-1.97-.88-1.97-1.97.88-1.97,1.97-1.97s1.97.88,1.97,1.97Z" opacity="0.25" fill="#fff"/><path style="mix-blend-mode:overlay" d="M205.48,259.75c0,1.09-.88,1.97-1.97,1.97s-1.97-.88-1.97-1.97.88-1.97,1.97-1.97s1.97.88,1.97,1.97Z" opacity="0.25" fill="#fff"/><path style="mix-blend-mode:overlay" d="M217.16,259.75c0,1.09-.88,1.97-1.97,1.97s-1.97-.88-1.97-1.97.88-1.97,1.97-1.97s1.97.88,1.97,1.97Z" opacity="0.25" fill="#fff"/><circle style="mix-blend-mode:overlay" r="1.97" transform="translate(226.86 259.75)" opacity="0.25" fill="#fff"/><circle style="mix-blend-mode:overlay" r="1.97" transform="translate(238.53 259.75)" opacity="0.25" fill="#fff"/><circle style="mix-blend-mode:overlay" r="1.97" transform="translate(250.2 259.75)" opacity="0.25" fill="#fff"/></g><g><circle style="mix-blend-mode:overlay" r="1.97" transform="translate(168.5 248.86)" opacity="0.25" fill="#fff"/><path style="mix-blend-mode:overlay" d="M182.14,248.86c0,1.09-.88,1.97-1.97,1.97s-1.97-.88-1.97-1.97.88-1.97,1.97-1.97s1.97.88,1.97,1.97Z" opacity="0.25" fill="#fff"/><path style="mix-blend-mode:overlay" d="M193.81,248.86c0,1.09-.88,1.97-1.97,1.97s-1.97-.88-1.97-1.97.88-1.97,1.97-1.97s1.97.88,1.97,1.97Z" opacity="0.25" fill="#fff"/><path style="mix-blend-mode:overlay" d="M205.48,248.86c0,1.09-.88,1.97-1.97,1.97s-1.97-.88-1.97-1.97.88-1.97,1.97-1.97s1.97.88,1.97,1.97Z" opacity="0.25" fill="#fff"/><path style="mix-blend-mode:overlay" d="M217.16,248.86c0,1.09-.88,1.97-1.97,1.97s-1.97-.88-1.97-1.97.88-1.97,1.97-1.97s1.97.88,1.97,1.97Z" opacity="0.25" fill="#fff"/><circle style="mix-blend-mode:overlay" r="1.97" transform="translate(226.86 248.86)" opacity="0.25" fill="#fff"/><circle style="mix-blend-mode:overlay" r="1.97" transform="translate(238.53 248.86)" opacity="0.25" fill="#fff"/><circle style="mix-blend-mode:overlay" r="1.97" transform="translate(250.2 248.86)" opacity="0.25" fill="#fff"/></g><g><path style="mix-blend-mode:overlay" d="M170.47,237.97c0,1.09-.88,1.97-1.97,1.97s-1.97-.88-1.97-1.97.88-1.97,1.97-1.97s1.97.88,1.97,1.97Z" opacity="0.25" fill="#fff"/><path style="mix-blend-mode:overlay" d="M182.14,237.97c0,1.09-.88,1.97-1.97,1.97s-1.97-.88-1.97-1.97.88-1.97,1.97-1.97s1.97.88,1.97,1.97Z" opacity="0.25" fill="#fff"/><path style="mix-blend-mode:overlay" d="M193.81,237.97c0,1.09-.88,1.97-1.97,1.97s-1.97-.88-1.97-1.97.88-1.97,1.97-1.97s1.97.88,1.97,1.97Z" opacity="0.25" fill="#fff"/><path style="mix-blend-mode:overlay" d="M205.48,237.97c0,1.09-.88,1.97-1.97,1.97s-1.97-.88-1.97-1.97.88-1.97,1.97-1.97s1.97.88,1.97,1.97Z" opacity="0.25" fill="#fff"/><path style="mix-blend-mode:overlay" d="M217.16,237.97c0,1.09-.88,1.97-1.97,1.97s-1.97-.88-1.97-1.97.88-1.97,1.97-1.97s1.97.88,1.97,1.97Z" opacity="0.25" fill="#fff"/><path style="mix-blend-mode:overlay" d="M228.83,237.97c0,1.09-.88,1.97-1.97,1.97s-1.97-.88-1.97-1.97.88-1.97,1.97-1.97s1.97.88,1.97,1.97Z" opacity="0.25" fill="#fff"/><path style="mix-blend-mode:overlay" d="M240.5,237.97c0,1.09-.88,1.97-1.97,1.97s-1.97-.88-1.97-1.97.88-1.97,1.97-1.97s1.97.88,1.97,1.97Z" opacity="0.25" fill="#fff"/><path style="mix-blend-mode:overlay" d="M252.17,237.97c0,1.09-.88,1.97-1.97,1.97s-1.97-.88-1.97-1.97.88-1.97,1.97-1.97s1.97.88,1.97,1.97Z" opacity="0.25" fill="#fff"/></g><g><path style="mix-blend-mode:overlay" d="M170.47,227.08c0,1.09-.88,1.97-1.97,1.97s-1.97-.88-1.97-1.97.88-1.97,1.97-1.97s1.97.88,1.97,1.97Z" opacity="0.25" fill="#fff"/><path style="mix-blend-mode:overlay" d="M182.14,227.08c0,1.09-.88,1.97-1.97,1.97s-1.97-.88-1.97-1.97.88-1.97,1.97-1.97s1.97.88,1.97,1.97Z" opacity="0.25" fill="#fff"/><path style="mix-blend-mode:overlay" d="M193.81,227.08c0,1.09-.88,1.97-1.97,1.97s-1.97-.88-1.97-1.97.88-1.97,1.97-1.97s1.97.88,1.97,1.97Z" opacity="0.25" fill="#fff"/><path style="mix-blend-mode:overlay" d="M205.48,227.08c0,1.09-.88,1.97-1.97,1.97s-1.97-.88-1.97-1.97.88-1.97,1.97-1.97s1.97.88,1.97,1.97Z" opacity="0.25" fill="#fff"/><path style="mix-blend-mode:overlay" d="M217.16,227.08c0,1.09-.88,1.97-1.97,1.97s-1.97-.88-1.97-1.97.88-1.97,1.97-1.97s1.97.88,1.97,1.97Z" opacity="0.25" fill="#fff"/><path style="mix-blend-mode:overlay" d="M228.83,227.08c0,1.09-.88,1.97-1.97,1.97s-1.97-.88-1.97-1.97.88-1.97,1.97-1.97s1.97.88,1.97,1.97Z" opacity="0.25" fill="#fff"/><path style="mix-blend-mode:overlay" d="M240.5,227.08c0,1.09-.88,1.97-1.97,1.97s-1.97-.88-1.97-1.97.88-1.97,1.97-1.97s1.97.88,1.97,1.97Z" opacity="0.25" fill="#fff"/><path style="mix-blend-mode:overlay" d="M252.17,227.08c0,1.09-.88,1.97-1.97,1.97s-1.97-.88-1.97-1.97.88-1.97,1.97-1.97s1.97.88,1.97,1.97Z" opacity="0.25" fill="#fff"/></g><g><circle style="mix-blend-mode:overlay" r="1.97" transform="translate(168.5 216.19)" opacity="0.25" fill="#fff"/><path style="mix-blend-mode:overlay" d="M182.14,216.19c0,1.09-.88,1.97-1.97,1.97s-1.97-.88-1.97-1.97.88-1.97,1.97-1.97s1.97.88,1.97,1.97Z" opacity="0.25" fill="#fff"/><path style="mix-blend-mode:overlay" d="M193.81,216.19c0,1.09-.88,1.97-1.97,1.97s-1.97-.88-1.97-1.97.88-1.97,1.97-1.97s1.97.88,1.97,1.97Z" opacity="0.25" fill="#fff"/><path style="mix-blend-mode:overlay" d="M205.48,216.19c0,1.09-.88,1.97-1.97,1.97s-1.97-.88-1.97-1.97.88-1.97,1.97-1.97s1.97.88,1.97,1.97Z" opacity="0.25" fill="#fff"/><path style="mix-blend-mode:overlay" d="M217.16,216.19c0,1.09-.88,1.97-1.97,1.97s-1.97-.88-1.97-1.97.88-1.97,1.97-1.97s1.97.88,1.97,1.97Z" opacity="0.25" fill="#fff"/><circle style="mix-blend-mode:overlay" r="1.97" transform="translate(226.86 216.19)" opacity="0.25" fill="#fff"/><circle style="mix-blend-mode:overlay" r="1.97" transform="translate(238.53 216.19)" opacity="0.25" fill="#fff"/><circle style="mix-blend-mode:overlay" r="1.97" transform="translate(250.2 216.19)" opacity="0.25" fill="#fff"/></g><g><circle style="mix-blend-mode:overlay" r="1.97" transform="translate(168.5 205.3)" opacity="0.25" fill="#fff"/><path style="mix-blend-mode:overlay" d="M182.14,205.3c0,1.09-.88,1.97-1.97,1.97s-1.97-.88-1.97-1.97.88-1.97,1.97-1.97s1.97.88,1.97,1.97Z" opacity="0.25" fill="#fff"/><path style="mix-blend-mode:overlay" d="M193.81,205.3c0,1.09-.88,1.97-1.97,1.97s-1.97-.88-1.97-1.97.88-1.97,1.97-1.97s1.97.88,1.97,1.97Z" opacity="0.25" fill="#fff"/><path style="mix-blend-mode:overlay" d="M205.48,205.3c0,1.09-.88,1.97-1.97,1.97s-1.97-.88-1.97-1.97.88-1.97,1.97-1.97s1.97.88,1.97,1.97Z" opacity="0.25" fill="#fff"/><path style="mix-blend-mode:overlay" d="M217.16,205.3c0,1.09-.88,1.97-1.97,1.97s-1.97-.88-1.97-1.97.88-1.97,1.97-1.97s1.97.88,1.97,1.97Z" opacity="0.25" fill="#fff"/><circle style="mix-blend-mode:overlay" r="1.97" transform="translate(226.86 205.3)" opacity="0.25" fill="#fff"/><circle style="mix-blend-mode:overlay" r="1.97" transform="translate(238.53 205.3)" opacity="0.25" fill="#fff"/><circle style="mix-blend-mode:overlay" r="1.97" transform="translate(250.2 205.3)" opacity="0.25" fill="#fff"/></g><g><path style="mix-blend-mode:overlay" d="M170.47,194.41c0,1.09-.88,1.97-1.97,1.97s-1.97-.88-1.97-1.97.88-1.97,1.97-1.97s1.97.88,1.97,1.97Z" opacity="0.25" fill="#fff"/><path style="mix-blend-mode:overlay" d="M182.14,194.41c0,1.09-.88,1.97-1.97,1.97s-1.97-.88-1.97-1.97.88-1.97,1.97-1.97s1.97.88,1.97,1.97Z" opacity="0.25" fill="#fff"/><path style="mix-blend-mode:overlay" d="M193.81,194.41c0,1.09-.88,1.97-1.97,1.97s-1.97-.88-1.97-1.97.88-1.97,1.97-1.97s1.97.88,1.97,1.97Z" opacity="0.25" fill="#fff"/><path style="mix-blend-mode:overlay" d="M205.48,194.41c0,1.09-.88,1.97-1.97,1.97s-1.97-.88-1.97-1.97.88-1.97,1.97-1.97s1.97.88,1.97,1.97Z" opacity="0.25" fill="#fff"/><path style="mix-blend-mode:overlay" d="M217.16,194.41c0,1.09-.88,1.97-1.97,1.97s-1.97-.88-1.97-1.97.88-1.97,1.97-1.97s1.97.88,1.97,1.97Z" opacity="0.25" fill="#fff"/><path style="mix-blend-mode:overlay" d="M228.83,194.41c0,1.09-.88,1.97-1.97,1.97s-1.97-.88-1.97-1.97.88-1.97,1.97-1.97s1.97.88,1.97,1.97Z" opacity="0.25" fill="#fff"/><path style="mix-blend-mode:overlay" d="M240.5,194.41c0,1.09-.88,1.97-1.97,1.97s-1.97-.88-1.97-1.97.88-1.97,1.97-1.97s1.97.88,1.97,1.97Z" opacity="0.25" fill="#fff"/><path style="mix-blend-mode:overlay" d="M252.17,194.41c0,1.09-.88,1.97-1.97,1.97s-1.97-.88-1.97-1.97.88-1.97,1.97-1.97s1.97.88,1.97,1.97Z" opacity="0.25" fill="#fff"/></g></g></g><clipPath id="eySqQ8FWRc3104"><path d="M234.31,244.44l11.2-11.33-11.77-23.69c-3.77-7.56-10.82-12.9-19.06-14.49-.51-.1-1.03-.18-1.54-.25l-2.08-.28h-16.72l-2.36-.64-3.3,1.51-6.79,3.13c-10.97,5.04-17.44,16.57-16.05,28.56l3.19,27.34l11.75-6.88-1.56,42.71c-.07,1.87,1.57,3.35,3.43,3.08l54.45-8.01c1.47-.22,2.49-1.57,2.29-3.04l-5.07-37.73Z" fill="none"/></clipPath></g><path d="M218.13,238.68l11.63-25.66c.45-.99,1.31-1.72,2.36-2.01l47.29-12.97c.8-.22,2.43,1.76,2.07,2.5l-17.21,31.94c-.55,1.12-1.51,1.99-2.68,2.44l-44.47,16.86l1.02-13.09Z" fill="#1f3251"/><path d="M218.97,240.57l11.63-25.66c.45-.99,1.31-1.72,2.36-2.01l47.29-12.97c.8-.22,1.48.61,1.12,1.35l-16.26,33.09c-.55,1.12-1.51,1.99-2.68,2.44l-44.47,16.86l1.02-13.09Z" fill="#2c4183"/><path d="M230.46,246.62c0,0,.96,2.23-3.75,6.56-4.71,4.32-11.84,1.52-11.84,1.52l-18.9,14.34c-2.67,2-5.87,3.03-9.08,3.03-2.39,0-4.78-.56-6.98-1.7-4.04-2.1-6.92-5.92-7.84-10.38l-.13-.65-1.24-6l10.06-5.9l8.03-4.71.27,1.49l1.26,6.92l20.54-10.05c0,0,4.13-6.61,6.11-8.97c1.97-2.35,4.19-2.73,4.89-1.21.71,1.52-3.75,7.76-3.75,7.76s1.65-.13,6.62-1.85c4.96-1.71,8.2-5.27,9.53-4.19c1.34,1.09.58,4.19-1.21,6.62.45,4.26-2.61,7.37-2.61,7.37Z" fill="#fecad0"/><polygon points="189.08,244.21 171.95,259.33 170.71,253.33 180.78,247.43 188.81,242.72 189.08,244.21" fill="#ee84aa"/><path d="M214.69,194.94c-.79,4.45-3.3,8.96-10.04,9.68-5.33.59-9.05-1.03-11.61-3.23-1.16-1.01-2.08-2.13-2.8-3.23-.68-1.02-1.19-2.01-1.55-2.88l3.3-1.51l2.36.64h16.72l2.08.28c.52.07,1.04.15,1.54.25Z" fill="#fff"/><path d="M205.15,201.6c-9.35,1.05-13.17-7.82-13.17-7.82l1.91-.83c0,0,.32-7.44-.38-11.77l2.67.69l13.16,3.39c-1.22,2.85-.9,6.83-.75,8.11.03.26.05.41.05.41l2.41.64c0,0,.39,6.49-5.91,7.18Z" fill="#fecad0"/><path d="M208.6,193.37c-5.27.12-11.96-1.71-14.02-8.6-.47-1.56.23-2.46,1.6-2.9l13.16,3.39c-1.22,2.85-.9,6.83-.75,8.11Z" fill="#ee84aa"/><path d="M191.29,176.48l-4.79-5.88c-2.47-3.04-2.22-7.47.59-10.21v0c-2.58-6.19,1.07-13.22,7.62-14.66l4.89-1.08c.87-.19,1.69-.56,2.41-1.09l4.69-3.43c1.14-.83,2.66-.89,3.85-.14v0c1.54.96,2.07,2.94,1.23,4.54l-1.44,2.72c-.17.32.2.67.51.47l8.49-5.3c1.09-.68,2.52-.48,3.38.47v0c.84.93.92,2.31.19,3.33l-5.86,8.21c-.2.29.08.66.41.55l1.44-.51c1.47-.52,3.1.06,3.91,1.38v0c.78,1.27.62,2.9-.4,3.98-2.8,2.98-8.06,8.93-8.75,12.31-.95,4.64-22.38,4.32-22.38,4.32Z" fill="#171c51"/><path d="M214.36,167.29c-.16.91-.31,2.28-.31,4.28c0,1.31.26,3.5.29,5.88.02,1.66-.07,3.44-.43,5.1-.84,3.87-3.14,7.15-8.95,7.15-11.9,0-13.1-11.77-13.1-11.77s-.32,2.83-2.99,1.49c-1.99-1-2.67-5.54-.42-6.62c1.32-.64,2.74.23,3.69,1.05.4.34,1.01.02.96-.5l-.48-5.55c3.25.99,14.88-2.32,19.46-6.83.08,1.22.92,2.6,1.63,3.57.58.79.82,1.77.65,2.74Z" fill="#fecad0"/><g><path d="M205.96,180.24l1.06-.62c.71-.42,1-1.3.67-2.06l-1.73-4.01" fill="none" stroke="#e45e8e" stroke-width="0.5" stroke-linecap="round" stroke-miterlimit="9"/><path d="M202.14,175.44c0,.53-.34.95-.76.95s-.76-.43-.76-.95.34-.95.76-.95.76.43.76.95Z"/><path d="M211.23,174.9c0,.53-.34.95-.76.95s-.76-.43-.76-.95.34-.95.76-.95.76.43.76.95Z"/><path d="M197.67,172.26c0,0,1.58-2.38,4.72-1.33" fill="none" stroke="#171c51" stroke-width="0.75" stroke-linecap="round" stroke-linejoin="round"/><path d="M212.85,171.05c0,0-1.88-2.08-4.9-.17" fill="none" stroke="#171c51" stroke-width="0.75" stroke-linecap="round" stroke-linejoin="round"/></g><path d="M202.39,182.54l4.5.21c0,0-.15,2.33-2.42,2.18s-2.08-2.4-2.08-2.4Z" fill="#fff"/><path d="M188.24,175.05c1.34-.83,2.54.22,2.29,2.23" fill="none" stroke="#e45e8e" stroke-width="0.5" stroke-linecap="round" stroke-miterlimit="9"/><g><path d="M201.72,179.95c0,1.48-1.2,2.67-2.67,2.67s-2.67-1.2-2.67-2.67s1.2-2.67,2.67-2.67s2.67,1.2,2.67,2.67Z" fill="#fbb8c2"/><path d="M214.34,177.46c.02,1.66-.07,3.44-.43,5.1-.17.04-.35.06-.53.06-1.47,0-2.67-1.2-2.67-2.67s1.2-2.67,2.67-2.67c.34,0,.66.06.96.18Z" fill="#fbb8c2"/></g><line x1="190.34" y1="251.13" x2="182.77" y2="254.95" fill="none" stroke="#e45e8e" stroke-width="0.5" stroke-linecap="round" stroke-miterlimit="9"/><path d="M233.07,239.24c-1.65,3.31-10.77,4.59-10.77,4.59" fill="none" stroke="#e45e8e" stroke-width="0.5" stroke-linecap="round" stroke-miterlimit="9"/><path d="M230.46,246.62c-3.69,3.94-9.79,2.99-9.79,2.99" fill="none" stroke="#e45e8e" stroke-width="0.5" stroke-linecap="round" stroke-miterlimit="9"/><line x1="188.81" y1="242.72" x2="185.65" y2="219.82" fill="none" stroke="#171c51" stroke-width="0.5" stroke-linecap="round" stroke-linejoin="round"/><line x1="227.68" y1="260.93" x2="204.64" y2="280.35" fill="none" stroke="#171c51" stroke-width="0.5" stroke-linecap="round" stroke-linejoin="round"/><g><rect width="27.02" height="8.78" rx="2.81" ry="2.81" transform="matrix(.991761 0.128103-.128103 0.991761 161.749304 427.213629)" fill="#587cf8"/><line x1="163.99" y1="427.53" x2="186.34" y2="430.42" fill="none" stroke="#171c51" stroke-width="0.5" stroke-linecap="round" stroke-linejoin="round"/></g><g><rect width="27.02" height="8.78" rx="2.81" ry="2.81" transform="matrix(.959952-.280164 0.280164 0.959952 247.552486 432.956747)" fill="#587cf8"/><line x1="249.73" y1="432.35" x2="271.37" y2="426.03" fill="none" stroke="#171c51" stroke-width="0.5" stroke-linecap="round" stroke-linejoin="round"/></g><g><path style="mix-blend-mode:overlay" d="M233.25,216.75c1.26-.93,2.86-.91,3.56.04.71.95.26,2.48-1.01,3.42-1.26.93-2.86.91-3.56-.04-.71-.95-.26-2.48,1.01-3.42Z" opacity="0.25" fill="#fff"/><path style="mix-blend-mode:overlay" d="M233.87,217.59c.65-.48,1.47-.47,1.83.02s.13,1.28-.52,1.75c-.65.48-1.47.47-1.83-.02s-.13-1.28.52-1.75Z" opacity="0.25" fill="#fff"/></g><line x1="216.16" y1="306.14" x2="210.15" y2="333.99" fill="none" stroke="#171c51" stroke-width="0.5" stroke-linecap="round" stroke-linejoin="round"/></g><g><path d="M95.92,319.2h242.38v20.63c0,10.17-8.26,18.44-18.44,18.44h-205.51c-10.17,0-18.44-8.26-18.44-18.44v-20.63v0Z" fill="#282727"/><rect width="210.31" height="5.87" rx="0" ry="0" transform="translate(111.43 340.3)" fill="#605f5f"/><g><path d="M115.56,324.33c-1.4-1.39-3.68-1.37-5.1.05s-1.43,3.71-.03,5.1l5.16,5.13l5.13-5.16c1.42-1.42,1.41-3.73-.01-5.15s-3.73-1.41-5.15.01Z" fill="#e30613" stroke="#fff" stroke-width="0.7" stroke-miterlimit="10"/><path d="M139.07,331.55c.51-.84.81-1.83.81-2.89c0-3.09-2.5-5.59-5.59-5.59s-5.59,2.5-5.59,5.59s2.5,5.59,5.59,5.59c.77,0,1.51-.16,2.18-.44l1.07.32l2.31.69-.56-2.35-.22-.92Z" fill="none" stroke="#fff" stroke-width="0.49" stroke-miterlimit="10"/><g><polygon points="151.97,330.89 147.47,328.46 159.4,324.24 153.82,335.6 151.97,330.89" fill="none" stroke="#fff" stroke-width="0.7" stroke-miterlimit="10"/><line x1="151.97" y1="330.89" x2="159.44" y2="324.28" fill="none" stroke="#fff" stroke-width="0.7" stroke-miterlimit="10"/></g></g><path d="M113.78,70.2h206.66c9.86,0,17.86,8,17.86,17.86v25.04h-242.38v-25.04c0-9.86,8-17.86,17.86-17.86Z" fill="#282727"/><circle r="14.81" transform="translate(123.21 91.44)" fill="#605f5f"/><rect width="118.45" height="10.88" rx="0" ry="0" transform="translate(145.27 86)" fill="#605f5f"/><g><circle r="1.21" transform="translate(323.95 88.32)" fill="#fcfcfc"/><circle r="1.21" transform="translate(323.95 92.37)" fill="#fcfcfc"/><circle r="1.21" transform="translate(323.95 96.43)" fill="#fcfcfc"/></g><line x1="338.3" y1="319.2" x2="95.92" y2="319.2" fill="none" stroke="#605f5f" stroke-width="0.94" stroke-miterlimit="10"/><line x1="338.3" y1="110.3" x2="95.92" y2="110.3" fill="none" stroke="#605f5f" stroke-width="0.94" stroke-miterlimit="10"/><path d="M95.92,111.28v207.91h242.38v-207.91h-242.38ZM333.57,313.06h-232.92v-195.65h232.92v195.65Z" fill="#282727"/></g><line x1="62.95" y1="465.91" x2="380.14" y2="465.91" fill="none" stroke="#fff" stroke-width="3" stroke-miterlimit="10"/><g id="eySqQ8FWRc3161_to" style="offset-path:path('M29.018326,138.536033C29.018326,138.536033,28.866085,136.291265,29.018326,147.536033C29.140165,156.517989,29.155078,132.70767,29.018326,138.536033');offset-rotate:0deg"><g transform="translate(-27.018326,-188.546028)"><circle r="26.61" transform="translate(26.61 187.62)" fill="#282727"/><g><path d="M17.7,176.03h19.02c2.53,0,4.58,2.05,4.58,4.58v.51h-28.19v-.51c0-2.53,2.05-4.58,4.58-4.58Z" transform="matrix(.999819 0.019023-.019023 0.999819 3.4-.49)" fill="#ea2a2a"/><polygon points="27.94,181.15 26.34,181.12 22.24,175.93 23.84,175.96 27.94,181.15" fill="#fff"/><polygon points="32.18,181.19 30.58,181.16 26.47,176.01 28.07,176.04 32.18,181.19" fill="#fff"/></g><g><path d="M12.86,182.92h28.19v8.49c0,5.33-4.33,9.66-9.66,9.66h-8.86c-5.33,0-9.66-4.33-9.66-9.66v-8.49v0Z" transform="matrix(.999819 0.019023-.019023 0.999819 3.66-.48)" fill="#ea2a2a"/><path d="M23.37,191.34l.09-4.97c.01-.59.66-.95,1.16-.64l4.26,2.57l4.26,2.57c.5.3.49,1.04-.03,1.33l-4.35,2.4-4.35,2.4c-.52.28-1.15-.1-1.14-.68l.09-4.97Z" fill="#fff"/></g></g></g><g id="eySqQ8FWRc3171_to" style="offset-path:path('M43.343909,41.610003L43.343909,27.610003L43.343909,41.610003');offset-rotate:0deg"><g transform="translate(-42.92,-56.320002)"><circle r="26.61" transform="translate(42.92 56.32)" fill="#282727"/><g><rect width="34.74" height="4.03" rx="0" ry="0" transform="translate(25.55 43.74)" fill="#27273d"/><rect width="34.74" height="20.29" rx="0" ry="0" transform="translate(25.55 48.61)" fill="#e8e8e8"/><ellipse rx="0.88" ry="1.11" transform="translate(27.38 45.76)" fill="#2ee554"/><ellipse rx="0.88" ry="1.11" transform="translate(29.9 45.76)" fill="#4f43e8"/><ellipse rx="0.88" ry="1.11" transform="translate(32.77 45.76)" fill="#ea2a2a"/><rect width="25.62" height="14.04" rx="0" ry="0" transform="translate(28.26 51.39)" fill="#c4a830"/><rect width="4.29" height="14.04" rx="0" ry="0" transform="translate(55.08 51.39)" fill="#605f5f"/></g></g></g><g id="eySqQ8FWRc3181_to" style="offset-path:path('M203.51,27.606647L203.510346,38.606647L203.510346,27.606647');offset-rotate:0deg"><g transform="translate(-205.590347,-26.606647)"><circle r="26.61" transform="translate(205.58 26.61)" fill="#282727"/><g><g clip-path="url(#eySqQ8FWRc3187)"><g><path d="M201.62,13.8c.24-.63.57-1.21,1.06-1.68c1.96-1.91,5.21-1.43,6.54.97c1,1.82,2.06,3.61,3.1,5.41l5.17,9c1.43,2.51-.12,5.69-2.97,6.12-1.74.26-3.38-.54-4.28-2.1l-4.55-7.9c-.03-.06-.07-.11-.11-.16-.16-.13-.23-.32-.33-.49l-3.35-5.8c-.39-.68-.57-1.42-.55-2.2.03-.4.08-.8.26-1.16" fill="#3c8bd9"/></g><clipPath id="eySqQ8FWRc3187"><rect width="25.14" height="31.34" rx="0" ry="0" transform="translate(193.01 10.94)" fill="none"/></clipPath></g><g clip-path="url(#eySqQ8FWRc3192)"><g><path d="M201.62,13.8c-.09.36-.17.72-.19,1.1-.03.84.18,1.62.6,2.35l3.3,5.7c.1.17.18.34.28.5l-1.81,3.12-2.53,4.37c0,0-.05-.02-.06-.05-.01-.08.02-.15.04-.23.41-1.5.07-2.84-.96-3.98-.63-.69-1.43-1.08-2.35-1.21-1.2-.17-2.26.14-3.22.89-.17.13-.28.32-.48.42-.04,0-.06-.02-.07-.05l1.43-2.49l5.96-10.33c0,0,.05-.07.07-.11" fill="#fabc04"/></g><clipPath id="eySqQ8FWRc3192"><rect width="25.14" height="31.34" rx="0" ry="0" transform="translate(193.01 10.94)" fill="none"/></clipPath></g><g clip-path="url(#eySqQ8FWRc3197)"><g><path d="M194.2,26.77l.57-.51c2.43-1.92,6.09-.53,6.62,2.51.13.73.06,1.43-.16,2.13-.01.06-.02.11-.04.17-.09.16-.17.33-.27.49-.89,1.47-2.2,2.2-3.93,2.09-1.97-.14-3.53-1.62-3.8-3.59-.13-.95.06-1.84.55-2.67.1-.18.22-.34.33-.52.05-.04.03-.12.12-.12" fill="#34a852"/></g><clipPath id="eySqQ8FWRc3197"><rect width="25.14" height="31.34" rx="0" ry="0" transform="translate(193.01 10.94)" fill="none"/></clipPath></g><g clip-path="url(#eySqQ8FWRc3202)"><g><path d="M194.2,26.77c0,0-.04.11-.11.12-.01-.07.03-.11.07-.16l.04.04" fill="#fabc04"/></g><clipPath id="eySqQ8FWRc3202"><rect width="25.14" height="31.34" rx="0" ry="0" transform="translate(193.01 10.94)" fill="none"/></clipPath></g><g clip-path="url(#eySqQ8FWRc3207)"><g><path d="M201.19,31.08c-.04-.07,0-.12.04-.17l.04.04-.08.13" fill="#e1c025"/></g><clipPath id="eySqQ8FWRc3207"><rect width="25.14" height="31.34" rx="0" ry="0" transform="translate(193.01 10.94)" fill="none"/></clipPath></g><g clip-path="url(#eySqQ8FWRc3212)"><g><path d="M195.09,37.03c-1.13,0-2.07.91-2.07,2.03s.94,2.02,2.07,2.02c.61,0,1.06-.2,1.42-.57.37-.37.48-.88.48-1.29c0-.13-.01-.25-.03-.35h-1.87v.55h1.33c-.04.31-.14.54-.3.7-.19.19-.5.41-1.03.41-.82,0-1.46-.66-1.46-1.47s.64-1.47,1.46-1.47c.44,0,.77.17,1,.4l.39-.39c-.33-.32-.77-.57-1.39-.57Zm3.4,1.45c-.71,0-1.3.55-1.3,1.32s.58,1.32,1.3,1.32s1.3-.56,1.3-1.32-.59-1.32-1.3-1.32m0,2.12c-.39,0-.73-.33-.73-.8s.34-.8.73-.8.73.32.73.8-.34.8-.73.8m2.83-2.12c-.72,0-1.3.55-1.3,1.32s.58,1.32,1.3,1.32s1.3-.56,1.3-1.32-.58-1.32-1.3-1.32m0,2.12c-.39,0-.73-.33-.73-.8s.34-.8.73-.8.73.32.73.8-.33.8-.73.8m2.82-2.12c-.65,0-1.24.57-1.24,1.31s.59,1.3,1.24,1.3c.31,0,.55-.14.68-.3h.02v.19c0,.5-.26.77-.69.77-.35,0-.56-.25-.65-.46l-.5.21c.14.35.52.77,1.15.77.67,0,1.23-.4,1.23-1.36v-2.34h-.54v.21h-.02c-.13-.16-.37-.3-.68-.3m.05,2.1c-.39,0-.72-.33-.72-.79s.33-.8.72-.8.69.34.69.8-.3.79-.69.79m1.61-3.4h.57v3.87h-.57v-3.87v0Zm2.1,1.29c-.68,0-1.25.53-1.25,1.32c0,.74.56,1.32,1.31,1.32.61,0,.96-.37,1.1-.58l-.45-.3c-.15.22-.36.36-.65.36s-.51-.13-.64-.4l1.77-.73-.06-.15c-.11-.29-.45-.84-1.13-.84m-.68,1.28c-.02-.51.4-.77.69-.77.23,0,.43.11.49.28l-1.18.49v0Zm2.88,1.23l1.32-3.52h.51l1.32,3.52h-.5l-.34-.95h-1.47l-.34.95h-.5Zm.99-1.37h1.17l-.57-1.58h-.02l-.58,1.58v0Zm2.63,1.08c-.22-.25-.33-.55-.33-.91s.11-.65.33-.91c.23-.25.49-.37.81-.37.18,0,.34.04.48.11.15.08.26.17.34.3h.02l-.02-.33v-1.11h.45v3.52h-.43v-.33h-.02c-.08.12-.19.22-.34.3s-.31.11-.48.11c-.32,0-.59-.12-.81-.37m1.42-.28c.15-.16.22-.37.22-.63s-.07-.46-.22-.62c-.14-.16-.32-.24-.54-.24s-.4.08-.54.24c-.15.16-.22.37-.22.62s.07.46.22.62.33.24.54.24c.22.01.4-.07.54-.23m2.75.43c-.18.14-.41.22-.69.22-.24,0-.45-.06-.64-.19-.18-.13-.31-.29-.39-.5l.4-.17c.06.14.14.26.26.34.11.08.24.12.37.12.14,0,.26-.03.36-.09s.14-.14.14-.22c0-.15-.12-.27-.35-.34l-.41-.1c-.47-.12-.7-.34-.7-.68c0-.22.09-.39.27-.53.18-.13.41-.2.68-.2.2,0,.4.05.58.15.17.1.29.24.36.41l-.4.17c-.05-.1-.12-.18-.22-.24s-.22-.09-.35-.09c-.12,0-.22.03-.32.09-.09.06-.14.13-.14.22c0,.14.13.24.39.29l.36.09c.48.12.71.36.71.72.01.21-.09.39-.27.53" fill="#919191"/></g><clipPath id="eySqQ8FWRc3212"><rect width="25.14" height="31.34" rx="0" ry="0" transform="translate(193.01 10.94)" fill="none"/></clipPath></g></g></g></g><g id="eySqQ8FWRc3214_to" style="offset-path:path('M393.08,85.610003L393.08,76.610003L393.08,85.610003');offset-rotate:0deg"><g transform="translate(-393.089981,-47.570002)"><circle r="26.61" transform="translate(393.08 47.57)" fill="#282727"/><g><path d="M407.75,51.85v8.29c0,1.97-1.5,3.58-3.33,3.58h-22.67c-1.84,0-3.34-1.6-3.34-3.58v-8.28c.59.08,1.19.11,1.79.07v8.2c0,.99.7,1.79,1.55,1.79h22.67c.86,0,1.54-.81,1.54-1.79v-8.22c.6.05,1.21.02,1.79-.07Z" fill="#f4f4f4"/><path d="M384.12,47.69c0,1.65-1.89,2.54-3.93,2.67-.59.05-1.2.02-1.78-.07-1.76-.27-3.23-1.14-3.23-2.6l4.11-14.92c.22-.8.95-1.35,1.78-1.35h24.04c.83,0,1.56.55,1.78,1.35L411,47.69c0,1.46-1.49,2.33-3.24,2.6-.58.08-1.19.11-1.78.07-2.04-.13-3.92-1.02-3.92-2.67v0c0,3.6-8.95,3.6-8.95,0c0,3.6-8.95,3.6-8.95,0v0Z" fill="#5f83cf"/><path d="M407.75,51.85v8.29c0,1.97-1.5,3.58-3.33,3.58h-22.67c-1.84,0-3.34-1.6-3.34-3.58v-8.28c.59.08,1.19.11,1.79.07v8.2c0,.99.7,1.79,1.55,1.79h22.67c.86,0,1.54-.81,1.54-1.79v-8.22c.6.05,1.21.02,1.79-.07Z" fill="none" stroke="#303030" stroke-width="0.91" stroke-linecap="round" stroke-linejoin="round"/><path d="M384.12,47.69c0,1.65-1.89,2.54-3.93,2.67-.59.05-1.2.02-1.78-.07-1.76-.27-3.23-1.14-3.23-2.6l4.11-14.92c.22-.8.95-1.35,1.78-1.35h24.04c.83,0,1.56.55,1.78,1.35L411,47.69c0,1.46-1.49,2.33-3.24,2.6-.58.08-1.19.11-1.78.07-2.04-.13-3.92-1.02-3.92-2.67v0c0,3.6-8.95,3.6-8.95,0c0,3.6-8.95,3.6-8.95,0v0Z" fill="none" stroke="#303030" stroke-width="0.91" stroke-linecap="round" stroke-linejoin="round"/><path d="M378.41,51.87c.58.08,1.19.11,1.78.07" fill="none" stroke="#303030" stroke-width="0.91" stroke-linecap="round" stroke-linejoin="round"/><path d="M405.97,51.93c.59.05,1.2.02,1.78-.07" fill="none" stroke="#303030" stroke-width="0.91" stroke-linecap="round" stroke-linejoin="round"/><line x1="383.13" y1="34.34" x2="393.82" y2="34.34" fill="none" stroke="#303030" stroke-width="0.91" stroke-linecap="round" stroke-linejoin="round"/><line x1="398.01" y1="34.34" x2="401.02" y2="34.34" fill="none" stroke="#303030" stroke-width="0.91" stroke-linecap="round" stroke-linejoin="round"/></g></g></g><g id="eySqQ8FWRc3225_to" style="offset-path:path('M405.968025,155.610466L405.968025,165.610466L405.968025,155.610466');offset-rotate:0deg"><g transform="translate(-412.540573,-184.590462)"><circle r="26.61" transform="translate(412.54 184.59)" fill="#282727"/><g><path d="M406.23,177.68c0-.78,0-1.57,0-2.35.17-.05.19-.17.19-.32c0-.42.01-.83,0-1.25-.04-.77-.39-1.35-1.11-1.65-1.83-.78-3.67-1.54-5.51-2.3-.55-.23-1.1-.21-1.65.02-.19.08-.38.16-.58.23-.67.26-.89.59-.89,1.31c0,3.07,0,6.13,0,9.2c0,2.24,0,4.47,0,6.71c0,.82.33,1.47,1.1,1.8c1.94.82,3.89,1.62,5.83,2.43.34.14.68.13,1.01,0c.37-.15.74-.31,1.11-.47.14.03.27-.02.4-.08c2.19-.91,4.37-1.82,6.56-2.72c1.95-.81,3.91-1.61,5.86-2.42.5-.21.77-.6.76-1.09c0-.47-.32-.9-.78-1.09-1.62-.67-3.25-1.34-4.87-2.03-.84-.36-1.68-.48-2.54-.14-.97.39-1.93.81-2.9,1.2-.6.24-1.16.55-1.79.7c0-.13-.01-.25-.01-.38c0-1.62,0-3.24,0-4.86c0-.17.02-.35-.2-.43Zm18.97,15.77c.94-.26,1.86-.63,2.7-1.1.74-.42.63-1.49-.13-1.9-.14-.08-.29-.15-.43-.21-1.6-.66-3.21-1.32-4.8-1.99-.83-.35-1.65-.34-2.48-.02-.13.05-.31.06-.32.26-.08-.02-.16-.04-.23-.07-.58-.25-1.17-.43-1.8-.29-.6.13-1.13.43-1.7.65-.11.04-.15.13-.14.25-.78.32-1.57.64-2.35.96-.12-.13-.25-.08-.38-.02-3.32,1.38-6.63,2.75-9.95,4.13-.37.16-.54.44-.54.84c0,.38.02.76.01,1.14c0,.42.17.7.56.86c1.92.8,3.85,1.6,5.77,2.4.69.29,1.37.28,2.05,0c4.72-1.96,9.45-3.91,14.17-5.87Z" fill="#fefefe"/><path d="M413.51,189.98c.78-.32,1.57-.64,2.35-.96.13.13.27.08.41.02.37-.16.74-.31,1.12-.45.78-.29,1.5-.11,2.25.3-.27.13-.49.27-.45.58s.29.38.54.47c.45.17.92.31,1.35.52.6.29,1.17.28,1.75-.03.14-.08.29-.13.46-.05.53.23,1.07.44,1.59.67.28.12.35.44.18.66-.08.11-.21.14-.32.19-2.53,1.05-5.07,2.1-7.6,3.15-2.08.86-4.15,1.72-6.23,2.58-.59.25-1.19.27-1.78.02-1.9-.79-3.81-1.59-5.71-2.38-.21-.09-.4-.18-.4-.45c0-.28.19-.37.4-.46c1.18-.49,2.36-.98,3.54-1.47c2.06-.86,4.13-1.71,6.19-2.57.16-.07.38-.09.35-.35Zm2.54.9c-.7-.02-1.38.09-2.02.44-.34.19-.64.45-.65.87c0,.44.29.73.65.9c1.33.63,2.67.63,3.99,0c.35-.17.64-.44.65-.87c0-.44-.3-.71-.65-.9-.61-.34-1.27-.45-1.98-.44Zm-.81,3.85c0-.18-.11-.22-.22-.26-1.55-.64-3.1-1.29-4.66-1.93-.13-.06-.3-.16-.38.05-.07.18.11.22.24.27.98.41,1.95.82,2.93,1.22.57.24,1.15.48,1.72.72.14.06.28.11.36-.06Zm-2.74.17c.08-.01.16-.04.18-.13.04-.17-.09-.22-.21-.27-.74-.31-1.48-.61-2.22-.92-.13-.05-.28-.14-.35.05-.07.18.1.23.22.28.74.31,1.48.62,2.22.92.05.02.11.04.16.06Z" fill="#f2bf51"/><path d="M406.44,183.35c.63-.15,1.2-.46,1.79-.7.97-.38,1.93-.81,2.9-1.2.86-.34,1.7-.22,2.54.14c1.62.69,3.24,1.36,4.87,2.03.46.19.77.62.78,1.09c0,.49-.26.88-.76,1.09-1.95.81-3.91,1.61-5.86,2.42-2.19.91-4.37,1.81-6.56,2.72-.13.05-.25.11-.4.08.54-.43.71-1,.7-1.67-.02-2,0-4,0-6Z" fill="#d9d9d9"/><path d="M413.51,189.98c.03.27-.19.29-.35.35-2.06.86-4.13,1.71-6.19,2.57-1.18.49-2.36.98-3.54,1.47-.21.09-.4.18-.4.46c0,.27.19.36.4.45c1.9.79,3.81,1.59,5.71,2.38.59.25,1.19.22,1.78-.02c2.07-.86,4.15-1.72,6.23-2.58c2.53-1.05,5.07-2.1,7.6-3.15.12-.05.24-.09.32-.19.17-.22.1-.54-.18-.66-.53-.23-1.06-.44-1.59-.67-.17-.08-.32-.02-.46.05-.58.31-1.15.33-1.75.03-.43-.21-.9-.36-1.35-.52-.24-.09-.49-.17-.54-.47-.04-.3.18-.44.45-.58-.74-.41-1.46-.6-2.25-.3-.38.14-.75.3-1.12.45-.15.06-.28.11-.41-.02-.01-.12.03-.21.14-.25.57-.22,1.1-.51,1.7-.65.64-.14,1.23.03,1.8.29.07.03.15.05.23.07.18.09.37.18.56.26c1.54.64,3.08,1.28,4.62,1.93.5.21.65.45.63.99-.01.3-.02.6,0,.9.02.36-.08.66-.33.9-4.72,1.96-9.45,3.91-14.17,5.87-.68.28-1.37.29-2.05,0-1.92-.8-3.84-1.6-5.77-2.4-.39-.16-.57-.44-.56-.86c0-.38,0-.76-.01-1.14c0-.4.17-.69.54-.84c3.32-1.38,6.63-2.75,9.95-4.13.13-.05.26-.11.38.02Zm11.65,2.62q0-.49-.42-.31c-4.54,1.88-9.08,3.76-13.62,5.65-.75.31-1.49.33-2.24,0-.96-.41-1.93-.81-2.9-1.21-.89-.37-1.78-.75-2.68-1.11-.08-.03-.2-.19-.28.01-.15.39.04.85.44,1.01c1.86.77,3.72,1.54,5.58,2.32.64.27,1.27.27,1.91,0c4.58-1.9,9.16-3.81,13.75-5.7.36-.15.52-.35.46-.67Zm-2.6-2.48c-.71-.3-1.38-.56-2.03-.86-.26-.12-.5-.14-.75-.02-.08.04-.2.04-.21.15c0,.13.12.15.22.18.56.21,1.12.4,1.67.64.37.16.71.16,1.11-.1Z" fill="#494852"/><path d="M406.44,183.35c0,2-.02,4,0,6c0,.68-.16,1.24-.7,1.67-.37.16-.74.32-1.11.47-.33.14-.67.15-1.01,0-1.94-.81-3.89-1.61-5.83-2.43-.78-.33-1.1-.97-1.1-1.8c0-2.24,0-4.47,0-6.71c0-3.07,0-6.13,0-9.2c0-.72.22-1.05.89-1.31.19-.08.39-.15.58-.23.55-.23,1.1-.25,1.65-.02c1.84.76,3.68,1.52,5.51,2.3.72.3,1.08.88,1.11,1.65.02.41,0,.83,0,1.25c0,.15-.03.28-.19.32-.16-.06-.16-.2-.16-.35c0-.37,0-.74,0-1.11c0-.64-.25-1.16-.86-1.42-1.87-.79-3.74-1.56-5.61-2.33-.43-.18-.86-.16-1.34.07.14.07.24.12.35.16c1.77.74,3.55,1.48,5.32,2.21.8.33,1.25.91,1.25,1.77c0,3.78,0,7.57,0,11.35c0,.16-.02.3-.19.37-.21-.09-.16-.28-.16-.45c0-3.7,0-7.4,0-11.1c0-.62-.17-1.16-.75-1.45-.57-.29-1.17-.51-1.77-.77-.1.63-.32.75-.88.51-.46-.19-.91-.4-1.37-.57-.42-.15-.66-.42-.61-.88.02-.2-.06-.29-.24-.36-.32-.12-.64-.26-.96-.39-.79-.32-1.22-.04-1.22.83c0,3.23,0,6.46,0,9.69c0,2.05,0,4.11,0,6.16c0,.74.32,1.25,1.01,1.53c1.87.77,3.74,1.56,5.61,2.33.71.29,1.17,0,1.17-.76c0-.92,0-1.84,0-2.77c0-.15-.02-.31.16-.38.18.06.19.2.19.36c0,1.08,0,2.15-.01,3.23-.03.02-.04.04,0,.06c0,0,.02-.02.03-.04.62-.19.87-.58.87-1.35c0-3.78,0-7.56,0-11.35c0-.17-.05-.36.16-.45.22.07.2.25.2.43c0,1.62,0,3.24,0,4.86c0,.13,0,.25.01.38Zm-4.5-11.03c.03-.15-.05-.21-.19-.26-.56-.23-1.12-.46-1.68-.7-.07-.03-.16-.1-.22-.04-.07.06-.04.17-.02.26.03.12.11.2.22.24.55.23,1.1.45,1.65.69.2.09.25,0,.24-.19Z" fill="#494753"/><path d="M406.23,177.68c-.2.1-.15.29-.16.45c0,3.78,0,7.56,0,11.35c0,.77-.25,1.16-.87,1.35c0,0-.02-.02-.03-.03c0-1.08,0-2.15.01-3.23c0-.16-.01-.3-.19-.36c0-.39,0-.78,0-1.18.17-.07.19-.2.19-.37c0-3.78,0-7.57,0-11.35c0-.87-.46-1.44-1.25-1.77-1.78-.73-3.55-1.47-5.32-2.21-.1-.04-.2-.09-.35-.16.47-.22.91-.24,1.34-.07c1.87.77,3.75,1.54,5.61,2.33.61.26.85.78.86,1.42c0,.37,0,.74,0,1.11c0,.14,0,.28.16.35c0,.78,0,1.57,0,2.35Z" fill="#d5d5d6"/><path d="M425.2,193.45c.26-.25.35-.55.33-.9-.02-.3-.01-.6,0-.9.02-.53-.12-.78-.63-.99-1.54-.64-3.08-1.28-4.62-1.93-.19-.08-.37-.17-.56-.26.02-.2.2-.21.32-.26.83-.32,1.65-.33,2.48.02c1.6.68,3.2,1.33,4.8,1.99.15.06.29.13.43.21.76.41.87,1.48.13,1.9-.84.48-1.75.85-2.7,1.1Z" fill="#d9d9d9"/><path d="M416.05,190.88c.71-.01,1.37.1,1.98.44.35.2.66.46.65.9c0,.42-.3.7-.65.87-1.33.63-2.67.63-3.99,0-.36-.17-.66-.46-.65-.9c0-.42.31-.68.65-.87.63-.35,1.32-.46,2.02-.44Zm-.01.35c-.62-.01-1.22.08-1.77.37-.25.13-.51.29-.52.6c0,.32.25.49.5.61c1.2.54,2.41.54,3.6-.01.24-.11.48-.28.48-.58s-.25-.46-.48-.58c-.56-.3-1.17-.4-1.8-.39Z" fill="#494751"/><path d="M415.23,194.73c-.07.17-.21.12-.36.06-.57-.24-1.15-.48-1.72-.72-.98-.41-1.95-.82-2.93-1.22-.13-.05-.3-.09-.24-.27.08-.21.25-.1.38-.05c1.55.64,3.1,1.29,4.66,1.93.11.04.22.08.22.26Z" fill="#49464d"/><path d="M412.49,194.9c-.06-.02-.11-.04-.16-.06-.74-.31-1.48-.61-2.22-.92-.12-.05-.29-.1-.22-.28s.22-.1.35-.05c.74.31,1.48.61,2.22.92.12.05.25.09.21.27-.02.09-.09.12-.18.13Z" fill="#49464d"/><path d="M425.16,192.6c.06.33-.1.52-.46.67-4.59,1.89-9.17,3.79-13.75,5.7-.64.27-1.27.26-1.91,0-1.86-.78-3.72-1.55-5.58-2.32-.39-.16-.59-.62-.44-1.01.08-.2.2-.04.28-.01.9.36,1.79.74,2.68,1.11.97.4,1.94.8,2.9,1.21.75.32,1.49.31,2.24,0c4.54-1.89,9.08-3.77,13.62-5.65q.41-.17.42.31Z" fill="#d6d6d6"/><path d="M422.56,190.12c-.4.26-.73.27-1.11.1-.55-.24-1.11-.43-1.67-.64-.09-.04-.22-.05-.22-.18c0-.11.13-.11.21-.15.25-.12.49-.1.75.02.65.3,1.32.56,2.03.86Z" fill="#f7f7f7"/><path d="M404.99,186.04c0,.39,0,.78,0,1.18-.18.07-.16.23-.16.38c0,.92,0,1.84,0,2.77c0,.76-.46,1.05-1.17.76-1.87-.78-3.74-1.56-5.61-2.33-.69-.29-1.01-.8-1.01-1.53c0-2.05,0-4.11,0-6.16c0-3.23,0-6.46,0-9.69c0-.86.43-1.15,1.22-.83.32.13.64.27.96.39.18.07.26.16.24.36-.04.46.19.72.61.88.46.17.92.37,1.37.57.56.24.78.12.88-.51.6.26,1.2.48,1.77.77.58.29.75.84.75,1.45c0,3.7,0,7.4,0,11.1c0,.17-.05.36.16.45Zm-1.25-1.58c0-.13-.02-.26,0-.38.06-.36-.1-.53-.43-.66-.82-.31-1.62-.66-2.43-1-.78-.32-1.55-.65-2.33-.96-.36-.15-.43-.1-.44.27c0,.36.01.71,0,1.07c0,.22.08.33.28.41.62.24,1.23.51,1.85.77c1.03.43,2.06.86,3.09,1.29.33.13.39.09.4-.26c0-.18,0-.37,0-.55Zm-3.67-3.74c.17,0,.2-.12.24-.23.45-1.15.91-2.31,1.36-3.46.05-.12.11-.26-.05-.33-.18-.08-.24.08-.29.21-.2.51-.4,1.03-.6,1.54-.25.64-.5,1.28-.75,1.92-.06.15-.11.29.1.35Zm1.7-.64c.54-.11,1.11-.22,1.68-.36.25-.06.2-.23.07-.39-.4-.49-.8-.98-1.21-1.47-.08-.1-.18-.26-.33-.12-.14.13-.02.25.07.36.31.37.61.75.92,1.12.12.15.13.22-.09.26-.4.07-.79.17-1.18.25-.13.03-.23.08-.21.22.02.13.13.14.28.13Zm-3.06-2.39c.45-.13.84-.24,1.24-.36.14-.04.33-.06.27-.27-.06-.19-.23-.11-.35-.07-.45.13-.91.26-1.36.39-.33.1-.36.18-.15.45.34.44.68.87,1.02,1.3.09.11.19.29.36.16.16-.13,0-.27-.08-.38-.3-.39-.61-.78-.95-1.21Zm1.13,10.46c-.09,0-.16.03-.18.12-.04.15.06.21.17.25.61.24,1.21.49,1.82.73.14.05.3.16.37-.05.07-.18-.11-.22-.23-.27-.59-.24-1.19-.48-1.79-.72-.05-.02-.11-.04-.16-.05Z" fill="#f1bf51"/><path d="M401.93,172.32c0,.19-.04.28-.24.19-.55-.24-1.1-.46-1.65-.69-.11-.05-.2-.12-.22-.24-.02-.09-.05-.2.02-.26.06-.05.15.01.22.04.56.23,1.12.47,1.68.7.14.05.22.12.19.26Z" fill="#f5f5f6"/><path d="M405.2,190.83c0,0-.03.04-.03.04-.03-.02-.02-.05,0-.06c0,0,.02.02.03.03Z" fill="#d5d5d6"/><path d="M416.03,191.23c.63,0,1.24.08,1.8.39.24.13.48.28.48.58s-.23.47-.48.58c-1.2.56-2.4.55-3.6.01-.25-.11-.51-.29-.5-.61c0-.31.27-.47.52-.6.55-.29,1.15-.38,1.77-.37Z" fill="#fcfcfc"/><path d="M403.74,184.46c0,.18,0,.37,0,.55c0,.35-.07.39-.4.26-1.03-.43-2.06-.86-3.09-1.29-.62-.26-1.23-.52-1.85-.77-.2-.08-.29-.19-.28-.41.01-.36,0-.71,0-1.07c0-.38.07-.42.44-.27.78.32,1.55.64,2.33.96.81.33,1.61.69,2.43,1c.33.13.49.3.43.66-.02.12,0,.25,0,.38Zm-5.26-2.65c0,.27.02.47,0,.68-.03.29.08.42.35.52c1.28.51,2.55,1.05,3.83,1.58.77.32.76.32.74-.52c0-.18-.07-.26-.23-.32-.43-.17-.85-.35-1.27-.53-1.12-.47-2.25-.93-3.41-1.41Z" fill="#484650"/><path d="M400.07,180.73c-.21-.05-.15-.2-.1-.35.25-.64.5-1.28.75-1.92.2-.51.4-1.03.6-1.54.05-.13.11-.28.29-.21.16.07.1.21.05.33-.45,1.15-.91,2.31-1.36,3.46-.04.11-.07.23-.24.23Z" fill="#49464d"/><path d="M401.77,180.09c-.15.01-.26,0-.28-.13-.02-.14.08-.2.21-.22.39-.08.78-.18,1.18-.25.22-.04.21-.11.09-.26-.31-.37-.61-.75-.92-1.12-.09-.11-.21-.23-.07-.36.15-.14.25.02.33.12.41.49.8.98,1.21,1.47.14.16.19.33-.07.39-.57.14-1.15.25-1.68.36Z" fill="#49464d"/><path d="M398.71,177.7c.34.44.65.82.95,1.21.09.11.24.25.08.38s-.27-.04-.36-.16c-.34-.43-.68-.87-1.02-1.3-.21-.27-.18-.35.15-.45.45-.13.9-.27,1.36-.39.13-.03.29-.12.35.07.07.21-.13.23-.27.27-.4.12-.79.23-1.24.36Z" fill="#49464d"/><path d="M399.84,188.16c.05.02.11.03.16.05.6.24,1.19.48,1.79.72.12.05.3.09.23.27-.08.21-.24.11-.37.05-.61-.24-1.21-.48-1.82-.73-.11-.05-.21-.11-.17-.25.02-.09.09-.12.18-.12Z" fill="#49464d"/><path d="M398.48,181.81c1.16.48,2.29.95,3.41,1.41.42.18.85.36,1.27.53.16.06.23.14.23.32.01.84.02.84-.74.52-1.27-.53-2.55-1.07-3.83-1.58-.27-.11-.38-.24-.35-.52.02-.2,0-.41,0-.68Z" fill="#fbfbfb"/></g></g></g></g></g></g></svg>
